<?xml version="1.0" standalone="no"?>
<!DOCTYPE svg PUBLIC "-//W3C//DTD SVG 20010904//EN"
 "http://www.w3.org/TR/2001/REC-SVG-20010904/DTD/svg10.dtd">
<svg version="1.0" xmlns="http://www.w3.org/2000/svg"
 width="274.000000pt" height="201.000000pt" viewBox="0 0 274.000000 201.000000"
 preserveAspectRatio="xMidYMid meet">

<g transform="translate(0.000000,201.000000) scale(0.100000,-0.100000)"
fill="#000000" stroke="none">
<path d="M1200 1881 c-103 -28 -185 -66 -275 -126 -82 -54 -202 -172 -238
-234 l-18 -31 58 0 c32 0 101 -3 154 -6 l96 -7 37 69 c39 75 129 198 214 294
30 33 50 60 45 59 -4 0 -37 -9 -73 -18z"/>
<path d="M1299 1813 c-47 -49 -99 -106 -117 -129 -37 -48 -122 -185 -122 -196
0 -4 74 -8 164 -8 l163 0 7 92 c9 128 8 328 -2 328 -5 0 -47 -39 -93 -87z"/>
<path d="M1468 1894 c-2 -5 -6 -100 -7 -211 l-3 -203 170 0 171 0 -35 62 c-20
34 -56 92 -82 128 -56 79 -207 237 -214 224z"/>
<path d="M1607 1866 c10 -13 42 -52 72 -87 57 -66 126 -170 173 -258 l28 -51
156 0 156 0 -17 28 c-108 169 -296 311 -489 371 -91 28 -103 28 -79 -3z"/>
<path d="M147 1243 c-4 -58 -7 -200 -7 -315 l0 -208 60 0 60 0 1 33 c1 17 4
117 8 220 l6 188 125 -223 125 -223 68 -3 67 -3 0 321 0 320 -60 0 -60 0 -2
-222 -3 -223 -109 195 c-61 107 -116 207 -124 223 -13 25 -17 27 -81 27 l-68
0 -6 -107z"/>
<path d="M790 1025 l0 -315 240 0 240 0 0 55 0 55 -175 0 -175 0 0 86 0 86
155 -7 155 -7 0 56 0 56 -94 0 c-51 0 -121 3 -155 6 l-61 7 0 63 0 64 170 0
170 0 0 55 0 55 -235 0 -235 0 0 -315z"/>
<path d="M1330 1337 c0 -5 137 -520 156 -585 l15 -53 62 3 62 3 50 240 c28
131 54 235 57 230 3 -6 25 -115 49 -243 l44 -233 65 3 64 3 88 300 c48 165 87
306 88 313 0 8 -19 12 -64 12 l-65 0 -53 -220 c-29 -121 -55 -214 -59 -207 -4
6 -24 105 -45 220 l-38 207 -51 2 c-52 1 -87 -1 -91 -5 -2 -2 -21 -90 -43
-197 -57 -271 -51 -258 -72 -170 -10 41 -32 144 -50 228 l-32 152 -68 0 c-38
0 -69 -1 -69 -3z"/>
<path d="M2340 1331 c-53 -17 -91 -43 -118 -83 -22 -34 -27 -53 -27 -104 0
-105 43 -141 230 -190 130 -34 147 -45 143 -91 -5 -54 -41 -77 -123 -77 -76 0
-114 21 -130 72 -9 32 -10 32 -72 32 -59 0 -63 -2 -63 -22 1 -38 35 -101 73
-135 46 -40 97 -54 198 -54 98 0 171 29 214 85 36 48 44 119 20 181 -22 59
-66 85 -215 125 -63 17 -123 38 -132 47 -27 25 -23 68 10 93 38 31 139 25 177
-10 14 -13 25 -29 25 -36 0 -22 38 -35 88 -32 46 3 47 4 44 33 -5 54 -52 117
-111 147 -45 24 -64 28 -130 27 -42 0 -87 -4 -101 -8z"/>
<path d="M674 533 c49 -94 195 -229 326 -301 61 -34 225 -92 260 -92 19 0 13
10 -42 73 -85 95 -151 186 -200 275 l-40 72 -159 0 -160 0 15 -27z"/>
<path d="M1060 552 c0 -16 93 -159 145 -222 30 -36 81 -92 115 -125 l60 -60
-2 205 -3 205 -157 3 c-87 1 -158 -1 -158 -6z"/>
<path d="M1450 348 l1 -203 98 101 c91 94 156 176 210 267 l23 37 -166 0 -166
0 0 -202z"/>
<path d="M1823 491 c-43 -78 -135 -200 -216 -287 l-66 -71 47 8 c126 24 247
76 358 155 65 46 187 171 217 223 l18 31 -163 0 -163 0 -32 -59z"/>
</g>
</svg>
